<?xml version="1.0" encoding="UTF-8"?>
<svg width="20px" height="17px" viewBox="0 0 20 17" version="1.1" xmlns="http://www.w3.org/2000/svg" xmlns:xlink="http://www.w3.org/1999/xlink">
    <!-- Generator: Sketch 51.3 (57544) - http://www.bohemiancoding.com/sketch -->
    <title>Combined Shape</title>
    <desc>Created with Sketch.</desc>
    <defs></defs>
    <g id="Page-1" stroke="none" stroke-width="1" fill="none" fill-rule="evenodd">
        <g id="Desktop-HD" transform="translate(-127.000000, -52.000000)" fill="#FFFFFF" fill-rule="nonzero" stroke="#FFFFFF">
            <path d="M127.5,58.062458 L127.5,58.968715 L128.329767,58.968715 L128.329767,68.5 L129.482326,68.5 L129.482326,58.968715 L132.303875,58.968715 L136.148619,68.5 L137.481683,68.5 L141.342718,58.968715 L144.195814,58.968715 L144.195814,68.5 L145.566047,68.5 L145.566047,58.968715 L146.5,58.968715 L146.5,58.062458 L145.566047,58.062458 L145.566047,52.5 L142.70371,52.5 L140.471855,58.062458 L133.437524,58.062458 L131.215722,52.5 L128.329767,52.5 L128.329767,58.062458 L127.5,58.062458 Z M131.938307,58.062458 L129.482326,58.062458 L129.482326,54.9103193 C129.482326,54.600783 129.733254,54.3498542 130.042791,54.3498542 C130.283251,54.3498542 130.499617,54.4958823 130.589571,54.7188828 L131.938307,58.062458 Z M130.482326,57.1261521 L130.482326,57.062458 L130.456633,57.062458 L130.482326,57.1261521 Z M144.195814,58.062458 L141.709835,58.062458 L143.060035,54.7293768 C143.152964,54.4999727 143.375744,54.3498542 143.623256,54.3498542 C143.939471,54.3498542 144.195814,54.6061972 144.195814,54.9224124 L144.195814,58.062458 Z M140.108232,58.968715 L137.478332,65.5232204 C137.39139,65.7399078 137.181386,65.8819242 136.947907,65.8819242 C136.714152,65.8819242 136.503969,65.7395479 136.417262,65.5224694 L133.799509,58.968715 L140.108232,58.968715 Z" id="Combined-Shape"></path>
        </g>
    </g>
</svg>