<?xml version="1.0" standalone="no"?>
<!DOCTYPE svg PUBLIC "-//W3C//DTD SVG 20010904//EN"
 "http://www.w3.org/TR/2001/REC-SVG-20010904/DTD/svg10.dtd">
<svg version="1.0" xmlns="http://www.w3.org/2000/svg"
 width="512.000000pt" height="512.000000pt" viewBox="0 0 512.000000 512.000000"
 preserveAspectRatio="xMidYMid meet">
<metadata>
Created by potrace 1.14, written by Peter Selinger 2001-2017
</metadata>
<g transform="translate(0.000000,512.000000) scale(0.100000,-0.100000)"
fill="#000000" stroke="none">
<path d="M1038 5109 c-319 -47 -605 -218 -801 -480 -99 -133 -164 -273 -208
-449 l-24 -95 0 -1525 0 -1525 24 -95 c58 -234 164 -423 326 -585 162 -162
351 -268 585 -326 l95 -24 1515 0 c1649 0 1563 -3 1745 57 353 117 646 410
763 763 60 182 57 96 57 1745 l0 1515 -24 95 c-73 293 -227 527 -462 702 -132
99 -259 159 -434 206 l-100 27 -1500 1 c-825 1 -1526 -2 -1557 -7z m112 -1660
c33 -7 62 -22 83 -42 19 -18 129 -188 246 -380 117 -191 217 -349 221 -352 4
-2 103 152 220 343 216 352 245 394 290 417 67 34 178 24 236 -20 66 -50 65
-35 62 -796 l-3 -685 -25 -37 c-73 -108 -244 -99 -299 16 -20 42 -21 57 -21
462 0 280 -3 416 -10 409 -6 -6 -75 -111 -155 -235 -80 -123 -160 -241 -179
-261 -62 -67 -155 -74 -219 -18 -18 15 -104 139 -192 275 l-160 247 -5 -428
c-5 -410 -6 -431 -26 -464 -31 -54 -87 -82 -157 -77 -85 5 -141 54 -158 138
-11 57 -11 1291 0 1348 14 70 66 125 132 141 49 11 62 11 119 -1z m2701 -27
c264 -71 398 -244 399 -509 0 -103 -14 -171 -53 -253 -37 -79 -128 -173 -209
-215 l-56 -30 135 -165 c74 -91 142 -181 150 -200 20 -45 13 -128 -13 -163
-10 -14 -36 -35 -57 -47 -53 -30 -139 -25 -194 12 -22 15 -115 123 -223 261
l-185 236 -142 1 -142 0 -3 -209 -3 -209 -31 -39 c-44 -55 -87 -75 -156 -70
-43 2 -65 10 -93 31 -73 56 -70 22 -70 781 0 744 -3 706 58 763 53 50 75 52
457 49 322 -4 362 -6 431 -25z"/>
<path d="M3260 2896 l0 -236 202 0 c228 0 290 11 353 63 50 41 75 97 75 172 0
74 -25 131 -74 172 -60 49 -92 55 -333 60 l-223 5 0 -236z"/>
</g>
</svg>
