<svg viewBox="0 0 58 19" fill="#2A2A2A" preserveAspectRatio="none" xmlns="http://www.w3.org/2000/svg">
<path fill-rule="evenodd" clip-rule="evenodd" d="M0 1.5C0 0.671573 0.671573 0 1.5 0H2.00838C2.36482 0 2.70961 0.12693 2.98097 0.358044L11.6579 7.74814L20.309 0.359396C20.5805 0.127439 20.926 0 21.2831 0H22.9973C23.8257 0 24.4973 0.671573 24.4973 1.5V17.5C24.4973 18.3284 23.8257 19 22.9973 19H19.3771C18.5487 19 17.8771 18.3284 17.8771 17.5V13.7564C17.8771 12.377 16.1723 11.7289 15.256 12.7599L12.2449 16.1479C11.6475 16.8201 10.5969 16.8191 10.0007 16.1458L7.01858 12.7781C6.10326 11.7445 4.39558 12.3919 4.39558 13.7725V17.5C4.39558 18.3284 3.72401 19 2.89558 19H1.5C0.671573 19 0 18.3284 0 17.5V1.5ZM28.4373 1.38337C29.5245 0.473367 30.8457 0 32.3504 0H36.8264C38.3371 0 39.6542 0.485177 40.724 1.41589C41.7939 2.33117 42.3477 3.45427 42.3477 4.73856V14.2614C42.3477 15.5466 41.7934 16.675 40.728 17.6035L40.7204 17.6102C39.6481 18.526 38.3318 19 36.8264 19H32.3504C30.8457 19 29.5245 18.5266 28.4373 17.6166L28.4296 17.6102C27.354 16.6915 26.8023 15.5585 26.8023 14.2614V4.73856C26.8023 3.44152 27.354 2.30856 28.4296 1.38988L28.4373 1.38337ZM44.6793 1.5C44.6793 0.671573 45.3508 0 46.1793 0H56.5C57.3284 0 58 0.671574 58 1.5V2.23133C58 3.05975 57.3284 3.73133 56.5 3.73133H52.7994C51.971 3.73133 51.2994 4.4029 51.2994 5.23133V6.12289C51.2994 6.95132 51.971 7.62289 52.7994 7.62289H54.2754C55.1038 7.62289 55.7754 8.29446 55.7754 9.12289V9.87711C55.7754 10.7055 55.1038 11.3771 54.2754 11.3771H52.7994C51.971 11.3771 51.2994 12.0487 51.2994 12.8771V13.7687C51.2994 14.5971 51.971 15.2687 52.7994 15.2687H56.5C57.3284 15.2687 58 15.9402 58 16.7687V17.5C58 18.3284 57.3284 19 56.5 19H46.1793C45.3508 19 44.6793 18.3284 44.6793 17.5V1.5ZM34.575 3.73133C34.2642 3.73133 34.0063 3.81798 33.7517 4.03542C33.5309 4.22407 33.4225 4.4388 33.4225 4.73856V14.2614C33.4225 14.536 33.5236 14.7586 33.7596 14.9712C34.0116 15.1838 34.2674 15.2687 34.575 15.2687C34.9117 15.2687 35.1585 15.1776 35.3829 14.9779L35.3905 14.9712L35.3982 14.9646C35.6528 14.7471 35.7543 14.5269 35.7543 14.2614V4.73856C35.7543 4.45094 35.6476 4.24016 35.4139 4.0485L35.3981 4.03556L35.3829 4.02208C35.1585 3.82243 34.9117 3.73133 34.575 3.73133Z" />
</svg>
