<svg width="20" height="17" xmlns="http://www.w3.org/2000/svg"><path d="M.5 6.062v.907h.83V16.5h1.152V6.969h2.822L9.149 16.5h1.333l3.86-9.531h2.854V16.5h1.37V6.969h.934v-.907h-.934V.5h-2.862l-2.232 5.562H6.438L4.216.5H1.33v5.562H.5zm4.438 0H2.482V2.91c0-.31.251-.56.56-.56a.59.59 0 0 1 .548.369l1.348 3.343zm-1.456-.936v-.064h-.025l.025.064zm13.714.936H14.71l1.35-3.333a.608.608 0 0 1 .563-.38c.316 0 .573.257.573.573v3.14zm-4.088.907l-2.63 6.554a.572.572 0 0 1-1.06 0L6.8 6.968h6.308z" fill="#FFF" stroke="#FFF"/></svg>