<svg version="1.0" xmlns="http://www.w3.org/2000/svg" width="682.667" height="682.667" viewBox="0 0 512 512"><path d="M103.8 1.1c-31.9 4.7-60.5 21.8-80.1 48C13.8 62.4 7.3 76.4 2.9 94l-2.4 9.5v305l2.4 9.5c5.8 23.4 16.4 42.3 32.6 58.5 16.2 16.2 35.1 26.8 58.5 32.6l9.5 2.4H255c164.9 0 156.3.3 174.5-5.7 35.3-11.7 64.6-41 76.3-76.3 6-18.2 5.7-9.6 5.7-174.5V103.5l-2.4-9.5c-7.3-29.3-22.7-52.7-46.2-70.2-13.2-9.9-25.9-15.9-43.4-20.6l-10-2.7-150-.1c-82.5-.1-152.6.2-155.7.7zm11.2 166c3.3.7 6.2 2.2 8.3 4.2 1.9 1.8 12.9 18.8 24.6 38 11.7 19.1 21.7 34.9 22.1 35.2.4.2 10.3-15.2 22-34.3 21.6-35.2 24.5-39.4 29-41.7 6.7-3.4 17.8-2.4 23.6 2 6.6 5 6.5 3.5 6.2 79.6l-.3 68.5-2.5 3.7c-7.3 10.8-24.4 9.9-29.9-1.6-2-4.2-2.1-5.7-2.1-46.2 0-28-.3-41.6-1-40.9-.6.6-7.5 11.1-15.5 23.5-8 12.3-16 24.1-17.9 26.1-6.2 6.7-15.5 7.4-21.9 1.8-1.8-1.5-10.4-13.9-19.2-27.5l-16-24.7-.5 42.8c-.5 41-.6 43.1-2.6 46.4-3.1 5.4-8.7 8.2-15.7 7.7-8.5-.5-14.1-5.4-15.8-13.8-1.1-5.7-1.1-129.1 0-134.8 1.4-7 6.6-12.5 13.2-14.1 4.9-1.1 6.2-1.1 11.9.1zm270.1 2.7c26.4 7.1 39.8 24.4 39.9 50.9 0 10.3-1.4 17.1-5.3 25.3-3.7 7.9-12.8 17.3-20.9 21.5l-5.6 3 13.5 16.5c7.4 9.1 14.2 18.1 15 20 2 4.5 1.3 12.8-1.3 16.3-1 1.4-3.6 3.5-5.7 4.7-5.3 3-13.9 2.5-19.4-1.2-2.2-1.5-11.5-12.3-22.3-26.1l-18.5-23.6-14.2-.1h-14.2l-.3 20.9-.3 20.9-3.1 3.9c-4.4 5.5-8.7 7.5-15.6 7-4.3-.2-6.5-1-9.3-3.1-7.3-5.6-7-2.2-7-78.1 0-74.4-.3-70.6 5.8-76.3 5.3-5 7.5-5.2 45.7-4.9 32.2.4 36.2.6 43.1 2.5z"/><path d="M326 222.4V246h20.2c22.8 0 29-1.1 35.3-6.3 5-4.1 7.5-9.7 7.5-17.2 0-7.4-2.5-13.1-7.4-17.2-6-4.9-9.2-5.5-33.3-6l-22.3-.5v23.6z"/></svg>